<svg width="48" height="48" viewBox="0 0 48 48" fill="none" xmlns="http://www.w3.org/2000/svg">
<path fill-rule="evenodd" clip-rule="evenodd" d="M23 4C15.8763 4 10.0909 9.72988 10.0011 16.8323C6.46936 18.375 4 21.8972 4 26C4 27.8182 4.48702 29.5286 5.33904 31.0014C5.89214 31.9576 7.11558 32.2842 8.0717 31.7312C9.02784 31.1782 9.35456 29.9546 8.80146 28.9986C8.29214 28.118 8 27.0962 8 26C8 23.193 9.92936 20.8318 12.537 20.1792C13.5102 19.9356 14.1659 19.0094 14.0546 17.9985C14.0186 17.6713 14 17.3382 14 17C14 12.0294 18.0294 8 23 8C27.152 8 30.652 10.8133 31.6882 14.641C31.8954 15.4066 32.5308 15.9783 33.3104 16.1065C37.1048 16.7305 40 20.029 40 24C40 25.8032 39.4056 27.4618 38.4012 28.7986C37.7378 29.6818 37.9158 30.9354 38.7988 31.599C39.682 32.2624 40.9356 32.0844 41.5992 31.2014C43.106 29.1956 44 26.6994 44 24C44 18.4692 40.26 13.8153 35.1712 12.424C33.32 7.50308 28.5712 4 23 4ZM14.0639 28.2728C15.1308 28.5586 15.764 29.6554 15.4781 30.7222L12.3723 42.3134C12.0864 43.3802 10.9897 44.0134 9.9228 43.7276C8.85586 43.4416 8.2227 42.345 8.50858 41.278L11.6144 29.687C11.9003 28.62 12.997 27.9868 14.0639 28.2728ZM35.064 28.2728C36.1308 28.5586 36.764 29.6554 36.4782 30.7222L33.3724 42.3134C33.0864 43.3804 31.9898 44.0134 30.9228 43.7276C29.856 43.4418 29.2228 42.345 29.5086 41.2782L32.6144 29.687C32.9004 28.62 33.997 27.987 35.064 28.2728ZM21.064 28.273C22.1308 28.5588 22.764 29.6554 22.4782 30.7224L19.3723 42.3136C19.0865 43.3804 17.9898 44.0136 16.9229 43.7278C15.8559 43.4418 15.2228 42.3452 15.5086 41.2782L18.6145 29.6872C18.9004 28.6202 19.997 27.987 21.064 28.273ZM29.4782 30.7222C29.764 29.6554 29.1308 28.5586 28.0638 28.2728C26.997 27.987 25.9002 28.62 25.6144 29.687L22.5086 41.2782C22.2226 42.345 22.8558 43.4418 23.9228 43.7276C24.9898 44.0134 26.0864 43.3804 26.3722 42.3134L29.4782 30.7222Z" fill="white"/>
</svg>
