<svg width="48" height="48" viewBox="0 0 48 48" fill="none" xmlns="http://www.w3.org/2000/svg">
<path fill-rule="evenodd" clip-rule="evenodd" d="M15.8219 13.8219C17.4664 9.8203 21.4016 7 26 7C30.7708 7 34.8286 10.0355 36.3542 14.2791C40.7418 15.3382 44 19.2876 44 24C44 28.329 41.2508 32.0118 37.4048 33.4048C36.0118 37.2508 32.3288 40 28 40H12.7199C7.904 40 4 36.0958 4 31.28C4 27.7864 6.05326 24.776 9.01696 23.3836C9.25608 19.0522 12.0003 15.3924 15.8219 13.8219ZM21.0506 13.0495C25.3596 13.4576 28.942 16.3507 30.3542 20.279C34.2872 21.2284 37.3128 24.5004 37.8974 28.5624C39.1844 27.4612 40 25.8248 40 24C40 20.8862 37.6266 18.3244 34.5916 18.0286C33.7304 17.9447 33.021 17.3167 32.8332 16.4721C32.137 13.3404 29.3394 11 26 11C24.0686 11 22.318 11.7828 21.0506 13.0495ZM20 17C19.2894 17 18.6071 17.1052 17.9657 17.2996C15.0899 18.1713 13 20.8442 13 24C13 24.2038 13.0087 24.4054 13.0256 24.604C13.1083 25.5758 12.4778 26.4656 11.5335 26.7098C9.4998 27.2358 8 29.0852 8 31.28C8 33.8868 10.1132 36 12.7199 36H28C30.8476 36 33.2364 34.0142 33.848 31.3498C33.9472 30.9178 34 30.4664 34 30C34 26.8862 31.6266 24.3244 28.5916 24.0286C27.7304 23.9448 27.021 23.3166 26.8332 22.4722C26.137 19.3404 23.3394 17 20 17Z" fill="white"/>
</svg>
