<svg width="48" height="48" viewBox="0 0 48 48" fill="none" xmlns="http://www.w3.org/2000/svg">
<path fill-rule="evenodd" clip-rule="evenodd" d="M11.6541 26.007C11.7873 25.7072 12.2127 25.7072 12.3459 26.007L12.6859 26.75C14.1407 29.7596 16.4325 32.286 19.2856 34.0262L19.8154 34.3366C20.0616 34.4752 20.0616 34.8296 19.8154 34.968L19.2856 35.2786C16.4325 37.0188 14.1407 39.545 12.6859 42.5546L12.3459 43.2978C12.2127 43.5974 11.7873 43.5974 11.6541 43.2978L11.3141 42.5546C9.85928 39.545 7.56751 37.0188 4.71439 35.2786L4.18463 34.968C3.93846 34.8296 3.93846 34.4752 4.18463 34.3366L4.71439 34.0262C7.56751 32.286 9.85928 29.7596 11.3141 26.75C11.4325 26.5052 11.5434 26.256 11.6541 26.007ZM11.9939 32.98L11.6436 33.392C11.3945 33.6724 11.1381 33.9462 10.8746 34.2132L10.474 34.6084L10.4199 34.656L10.8746 35.102L11.2645 35.5076L11.6437 35.9232L11.9939 36.334L12.345 35.9232C12.5941 35.6428 12.8505 35.369 13.1141 35.102L13.5679 34.656L13.5147 34.6084C13.2441 34.3484 12.9805 34.0814 12.7241 33.8076L12.345 33.392L11.9939 32.98ZM28.9454 5.45981C29.1786 4.93527 29.923 4.93527 30.1562 5.45981L30.4572 6.13173L30.7512 6.76017L31.1428 7.54138L31.5946 8.37907L31.8188 8.77285C33.8126 12.2136 36.4602 15.2276 39.6083 17.6461L40.4626 18.279C41.059 18.7049 41.672 19.1101 42.3006 19.4935C42.606 19.6797 42.915 19.8609 43.2276 20.0368C43.6584 20.279 43.6584 20.8994 43.2276 21.1416C42.915 21.3176 42.606 21.4986 42.3006 21.685C41.8815 21.9405 41.4694 22.2057 41.0645 22.4804L40.3436 22.9848C36.8714 25.4896 33.966 28.7 31.8188 32.4056L31.5558 32.8688C31.2734 33.3764 31.005 33.8932 30.7512 34.4182L30.4572 35.0466L30.1562 35.7186C29.923 36.243 29.1786 36.243 28.9454 35.7186L28.6444 35.0466L28.3504 34.4182L27.9588 33.637L27.507 32.7992L27.2828 32.4056C25.289 28.9647 22.6412 25.9507 19.4932 23.5323L18.6389 22.8994C18.0425 22.4734 17.4295 22.0682 16.801 21.685C16.4956 21.4986 16.1865 21.3176 15.8739 21.1416C15.4431 20.8994 15.4431 20.279 15.8739 20.0368C16.1865 19.8609 16.4956 19.6797 16.801 19.4935C17.22 19.2379 17.6321 18.9726 18.037 18.698L18.758 18.1936C22.23 15.6888 25.1356 12.4783 27.2828 8.77285L27.5458 8.30959C27.8282 7.80187 28.0966 7.28523 28.3504 6.76017L28.6444 6.13173L28.9454 5.45981ZM29.5508 12.6899C27.5394 15.6899 25.067 18.3562 22.2248 20.5892C25.067 22.8222 27.5394 25.4884 29.5508 28.4884C31.5622 25.4884 34.0344 22.8222 36.8768 20.5892C34.0344 18.3562 31.5622 15.6899 29.5508 12.6899Z" fill="white"/>
</svg>
