<svg width="48" height="48" viewBox="0 0 48 48" fill="none" xmlns="http://www.w3.org/2000/svg">
<path d="M28 36C30.2092 36 32 37.7908 32 40C32 42.2092 30.2092 44 28 44C25.7908 44 24 42.2092 24 40C24 37.7908 25.7908 36 28 36ZM19 34C20.6568 34 22 35.3432 22 37C22 38.6568 20.6568 40 19 40C17.3431 40 16 38.6568 16 37C16 35.3432 17.3431 34 19 34ZM23 4C28.5712 4 33.32 7.50308 35.1712 12.424C40.26 13.8153 44 18.4692 44 24C44 27.9272 42.1114 31.414 39.2012 33.5998C38.318 34.2632 37.0642 34.085 36.4008 33.2018C35.7374 32.3188 35.9156 31.065 36.7988 30.4016C38.7464 28.9386 40 26.616 40 24C40 20.029 37.1048 16.7305 33.3104 16.1065C32.5308 15.9783 31.8954 15.4066 31.6882 14.641C30.652 10.8133 27.152 8 23 8C18.0294 8 14 12.0294 14 17C14 17.3382 14.0186 17.6713 14.0546 17.9985C14.1659 19.0094 13.5102 19.9356 12.537 20.1792C9.92936 20.8318 8 23.193 8 26C8 28.2184 9.20282 30.158 11.0015 31.1986C11.9576 31.7516 12.2843 32.975 11.7312 33.9312C11.1781 34.8874 9.95466 35.214 8.99854 34.661C6.01476 32.935 4 29.704 4 26C4 21.8972 6.46936 18.375 10.0011 16.8323C10.0909 9.72988 15.8763 4 23 4ZM29 28C30.6568 28 32 29.3432 32 31C32 32.6568 30.6568 34 29 34C27.3432 34 26 32.6568 26 31C26 29.3432 27.3432 28 29 28ZM20 24C22.2092 24 24 25.7908 24 28C24 30.2092 22.2092 32 20 32C17.7909 32 16 30.2092 16 28C16 25.7908 17.7909 24 20 24Z" fill="white"/>
</svg>
