<svg width="48" height="48" viewBox="0 0 48 48" fill="none" xmlns="http://www.w3.org/2000/svg">
<path d="M19.7774 39.3118C20.0632 38.2448 21.16 37.6118 22.2268 37.8976C23.2938 38.1834 23.927 39.2802 23.641 40.347L23.1234 42.279C22.8376 43.3458 21.7408 43.979 20.674 43.6932C19.607 43.4072 18.9738 42.3106 19.2597 41.2436L19.7774 39.3118ZM15.3868 35.587C16.4538 35.873 17.0869 36.9696 16.8011 38.0366L16.2834 39.9684C15.9975 41.0354 14.9009 41.6686 13.8339 41.3826C12.767 41.0968 12.1338 40 12.4197 38.9332L12.9374 37.0012C13.2232 35.9344 14.3199 35.3012 15.3868 35.587ZM30.054 35.587C31.121 35.873 31.7542 36.9696 31.4682 38.0366L30.9506 39.9684C30.6648 41.0354 29.568 41.6686 28.5012 41.3826C27.4342 41.0968 26.801 40 27.0868 38.9332L27.6046 37.0012C27.8904 35.9344 28.987 35.3012 30.054 35.587ZM24.2974 30.1702C25.3644 30.456 25.9974 31.5528 25.7116 32.6196L25.194 34.5516C24.908 35.6184 23.8114 36.2516 22.7444 35.9658C21.6776 35.6798 21.0444 34.5832 21.3302 33.5162L21.848 31.5844C22.1338 30.5174 23.2304 29.8844 24.2974 30.1702ZM23 4C28.5712 4 33.32 7.50308 35.1712 12.424C40.26 13.8153 44 18.4692 44 24C44 27.2704 42.689 30.238 40.5688 32.4002C40.1442 32.8332 39.687 33.234 39.2012 33.599C38.318 34.2624 37.0644 34.0844 36.401 33.2012C35.7376 32.318 35.9156 31.0644 36.7988 30.401C37.1234 30.1572 37.4288 29.8892 37.7126 29.5998C39.1296 28.1546 40 26.181 40 24C40 20.029 37.1048 16.7305 33.3104 16.1065C32.5308 15.9783 31.8954 15.4066 31.6882 14.641C30.652 10.8133 27.152 8 23 8C18.0294 8 14 12.0294 14 17C14 17.3382 14.0186 17.6713 14.0546 17.9985C14.1659 19.0094 13.5102 19.9356 12.537 20.1792C9.92936 20.8318 8 23.193 8 26C8 27.7918 8.78288 29.3982 10.0318 30.5006C10.86 31.2314 10.9388 32.4954 10.2078 33.3234C9.4769 34.1516 8.21302 34.2304 7.38488 33.4994C5.31214 31.67 4 28.987 4 26C4 21.8972 6.46936 18.375 10.0011 16.8323C10.0909 9.72988 15.8763 4 23 4ZM17.4574 27.8596C18.5243 28.1456 19.1575 29.2422 18.8716 30.3092L18.354 32.241C18.0681 33.308 16.9714 33.941 15.9045 33.6552C14.8376 33.3694 14.2044 32.2726 14.4903 31.2058L15.0079 29.2738C15.2938 28.207 16.3905 27.5738 17.4574 27.8596ZM32.1246 27.8596C33.1916 28.1456 33.8246 29.2422 33.5388 30.3092L33.0212 32.241C32.7352 33.308 31.6386 33.9412 30.5716 33.6552C29.5048 33.3694 28.8716 32.2726 29.1574 31.2058L29.675 29.2738C29.961 28.207 31.0576 27.5738 32.1246 27.8596Z" fill="white"/>
</svg>
