<svg width="48" height="48" viewBox="0 0 48 48" fill="none" xmlns="http://www.w3.org/2000/svg">
<path d="M24 12C30.6274 12 36 17.3726 36 24C36 24.8194 35.9176 25.6216 35.76 26.3982C35.5402 27.4806 34.4844 28.18 33.402 27.9602C32.3196 27.7404 31.6202 26.6848 31.8398 25.6024C31.9446 25.0862 32 24.5506 32 24C32 19.5817 28.4182 16 24 16C19.5817 16 16 19.5817 16 24C16 24.5506 16.0553 25.0862 16.1601 25.6022C16.3799 26.6848 15.6806 27.7404 14.5982 27.9602C13.5157 28.18 12.46 27.4808 12.2401 26.3982C12.0824 25.6218 12 24.8194 12 24C12 17.3726 17.3726 12 24 12ZM42 22.0002C43.1046 22.0002 44 22.8956 44 24.0002C44 25.1048 43.1046 26.0002 42 26.0002H40C38.8954 26.0002 38 25.1048 38 24.0002C38 22.8956 38.8954 22.0002 40 22.0002H42ZM8 22.0002C9.10456 22.0002 10 22.8956 10 24.0002C10 25.1048 9.10456 26.0002 8 26.0002H6C4.89544 26.0002 4 25.1048 4 24.0002C4 22.8956 4.89544 22.0002 6 22.0002H8ZM38.1422 9.85752C38.9232 10.6386 38.9232 11.9049 38.1422 12.6859L36.728 14.1002C35.947 14.8812 34.6806 14.8812 33.8996 14.1002C33.1186 13.3191 33.1186 12.0528 33.8996 11.2717L35.3138 9.85752C36.0948 9.07646 37.3612 9.07646 38.1422 9.85752ZM12.6865 9.85834L14.1007 11.2726C14.8818 12.0536 14.8818 13.3199 14.1007 14.101C13.3197 14.882 12.0534 14.882 11.2723 14.101L9.8581 12.6868C9.07704 11.9057 9.07704 10.6394 9.8581 9.85834C10.6391 9.0773 11.9055 9.0773 12.6865 9.85834ZM24 4C25.1046 4 26 4.89544 26 6V8C26 9.10456 25.1046 10 24 10C22.8954 10 22 9.10456 22 8V6C22 4.89544 22.8954 4 24 4ZM8 30C6.89544 30 6 30.8954 6 32C6 33.1046 6.89544 34 8 34H40C41.1046 34 42 33.1046 42 32C42 30.8954 41.1046 30 40 30H8ZM14 38C12.8954 38 12 38.8954 12 40C12 41.1046 12.8954 42 14 42H34C35.1046 42 36 41.1046 36 40C36 38.8954 35.1046 38 34 38H14Z" fill="white"/>
</svg>
