<svg width="48" height="48" viewBox="0 0 48 48" fill="none" xmlns="http://www.w3.org/2000/svg">
<path d="M37 12C40.866 12 44 15.134 44 19C44 22.866 40.866 26 37 26H6C4.89544 26 4 25.1046 4 24C4 22.8954 4.89544 22 6 22H37C38.6568 22 40 20.6568 40 19C40 17.3431 38.6568 16 37 16C35.6476 16 34.5006 16.8967 34.1278 18.1289L34.06 18.3979C33.8404 19.4804 32.7846 20.1798 31.7022 19.96C30.6196 19.7403 29.9202 18.6846 30.14 17.6021C30.7888 14.4062 33.6112 12 37 12ZM22 6C25.3138 6 28 8.6863 28 12C28 15.3137 25.3138 18 22 18H10C8.89544 18 8 17.1046 8 16C8 14.8954 8.89544 14 10 14H22C23.1046 14 24 13.1046 24 12C24 10.8954 23.1046 10 22 10C21.3442 10 20.7601 10.3148 20.3934 10.8083L20.2664 11.0015C19.7133 11.9576 18.4898 12.2843 17.5337 11.7312C16.5776 11.1781 16.2509 9.95466 16.8039 8.99854C17.8383 7.21036 19.7767 6 22 6ZM10 6C11.1046 6 12 6.89544 12 8C12 9.10456 11.1046 10 10 10C8.89544 10 8 9.10456 8 8C8 6.89544 8.89544 6 10 6ZM34 6C35.1046 6 36 6.89544 36 8C36 9.10456 35.1046 10 34 10C32.8954 10 32 9.10456 32 8C32 6.89544 32.8954 6 34 6ZM18 38C19.1046 38 20 38.8954 20 40C20 41.1046 19.1046 42 18 42C16.8954 42 16 41.1046 16 40C16 38.8954 16.8954 38 18 38ZM29 30C31.7614 30 34 32.2386 34 35C34 37.7614 31.7614 40 29 40C27.7206 40 26.5494 39.517 25.6662 38.7264C24.8432 37.9898 24.773 36.7254 25.5098 35.9022C26.1897 35.1425 27.3194 35.0244 28.1365 35.5901L28.3338 35.7458C28.512 35.9054 28.7426 36 29 36C29.5522 36 30 35.5522 30 35C30 34.4478 29.5522 34 29 34H14C12.8954 34 12 33.1046 12 32C12 30.8954 12.8954 30 14 30H29ZM42 34C42 35.1046 41.1046 36 40 36C38.8954 36 38 35.1046 38 34C38 32.8954 38.8954 32 40 32C41.1046 32 42 32.8954 42 34Z" fill="white"/>
</svg>
