<svg width="48" height="48" viewBox="0 0 48 48" fill="none" xmlns="http://www.w3.org/2000/svg">
<path d="M33.7358 37.966C34.8028 38.2518 35.436 39.3486 35.15 40.4154L34.6324 42.3474C34.3466 43.4142 33.2498 44.0474 32.183 43.7616C31.116 43.4756 30.4828 42.379 30.7688 41.312L31.2864 39.3802C31.5722 38.3132 32.669 37.68 33.7358 37.966ZM19.7358 37.9662C20.8028 38.2522 21.436 39.3488 21.15 40.4158L20.6324 42.3476C20.3466 43.4144 19.2498 44.0476 18.1829 43.7618C17.116 43.4758 16.4828 42.3792 16.7687 41.3122L17.2863 39.3804C17.5722 38.3134 18.6689 37.6804 19.7358 37.9662ZM28.0354 33.1362C29.026 33.4018 29.6427 34.3663 29.497 35.357L29.4496 35.5858L28.4142 39.4494C28.1284 40.5164 27.0318 41.1496 25.9648 40.8636C24.974 40.5982 24.3573 39.6335 24.5032 38.643L24.5506 38.4142L25.5858 34.5504C25.8718 33.4836 26.9684 32.8504 28.0354 33.1362ZM14.0353 33.1362C15.1023 33.4222 15.7354 34.5188 15.4496 35.5858L14.4143 39.4494C14.1284 40.5164 13.0317 41.1496 11.9648 40.8636C10.8979 40.5778 10.2647 39.481 10.5506 38.4142L11.5859 34.5504C11.8717 33.4836 12.9684 32.8504 14.0353 33.1362ZM21.8064 30.2388C22.8732 30.5246 23.5064 31.6214 23.2206 32.6884L22.703 34.6202C22.417 35.687 21.3204 36.3202 20.2534 36.0344C19.1865 35.7484 18.5534 34.6518 18.8392 33.5848L19.3569 31.653C19.6428 30.586 20.7394 29.953 21.8064 30.2388ZM35.8064 30.2386C36.8734 30.5244 37.5066 31.6212 37.2206 32.688L36.703 34.62C36.4172 35.6868 35.3204 36.32 34.2536 36.0342C33.1866 35.7482 32.5534 34.6516 32.8392 33.5846L33.357 31.6528C33.6428 30.5858 34.7394 29.9526 35.8064 30.2386ZM23 4C28.5712 4 33.32 7.50308 35.1712 12.424C40.26 13.8153 44 18.4692 44 24C44 26.6994 43.106 29.1956 41.5992 31.2014C40.9356 32.0844 39.682 32.2624 38.7988 31.599C37.9158 30.9354 37.7378 29.6818 38.4012 28.7986C39.4056 27.4618 40 25.8032 40 24C40 20.029 37.1048 16.7305 33.3104 16.1065C32.5308 15.9783 31.8954 15.4066 31.6882 14.641C30.652 10.8133 27.152 8 23 8C18.0294 8 14 12.0294 14 17C14 17.3382 14.0186 17.6713 14.0546 17.9985C14.1659 19.0094 13.5102 19.9356 12.537 20.1792C9.92936 20.8318 8 23.193 8 26C8 26.9396 8.21463 27.8245 8.59669 28.6127L8.80146 28.9986C9.35456 29.9546 9.02784 31.1782 8.0717 31.7312C7.11558 32.2842 5.89214 31.9576 5.33904 31.0014C4.48702 29.5286 4 27.8182 4 26C4 21.8972 6.46936 18.375 10.0011 16.8323C10.0909 9.72988 15.8763 4 23 4Z" fill="white"/>
</svg>
