<svg width="48" height="48" viewBox="0 0 48 48" fill="none" xmlns="http://www.w3.org/2000/svg">
<path fill-rule="evenodd" clip-rule="evenodd" d="M10.0011 20.8322C10.0909 13.7299 15.8763 8 23 8C28.5712 8 33.32 11.5031 35.1712 16.424C40.26 17.8153 44 22.4692 44 28C44 34.6274 38.6274 40 32 40H14C8.47716 40 4 35.5228 4 30C4 25.8972 6.46936 22.375 10.0011 20.8322ZM23 12C18.0294 12 14 16.0294 14 21C14 21.3382 14.0186 21.6712 14.0546 21.9984C14.1659 23.0094 13.5102 23.9356 12.537 24.1792C9.92936 24.8318 8 27.193 8 30C8 33.3138 10.6863 36 14 36H32C36.4182 36 40 32.4182 40 28C40 24.029 37.1048 20.7304 33.3104 20.1064C32.5308 19.9783 31.8954 19.4067 31.6882 18.641C30.652 14.8133 27.152 12 23 12Z" fill="white"/>
</svg>
