<svg width="48" height="48" viewBox="0 0 48 48" fill="none" xmlns="http://www.w3.org/2000/svg">
<path fill-rule="evenodd" clip-rule="evenodd" d="M24 6C29.1834 6 33.9722 6.92978 37.5402 8.51552C39.3216 9.30728 40.887 10.3018 42.0342 11.5073C43.1912 12.723 44 14.2447 44 16C44 18.7298 42.1192 20.8428 39.6992 22.349C39.8902 22.8604 40 23.4118 40 24C40 25.6938 39.093 27.0758 37.9546 28.0904C37.3342 28.6432 36.5986 29.1328 35.7824 29.5614C35.922 30.0138 36 30.4944 36 31C36 33.0084 34.7894 34.5894 33.3362 35.6474C32.3894 36.3366 31.2466 36.8824 29.99 37.2738C29.855 39.1106 28.375 40.2912 27.137 40.9102C25.719 41.6192 23.9 42 22 42C20.1 42 18.281 41.6192 16.8629 40.9102C15.5645 40.261 14 38.994 14 37C14 35.854 14.5417 34.9282 15.1988 34.2634C14.4747 33.3586 14 32.2674 14 31C14 30.7872 14.0139 30.5784 14.0406 30.3738C12.7427 29.8836 11.5808 29.2818 10.6317 28.5692C9.21536 27.5058 8 25.97 8 24C8 23.4118 8.10986 22.8604 8.30082 22.349C5.88088 20.8428 4 18.7298 4 16C4 14.2447 4.80876 12.723 5.96574 11.5073C7.1129 10.3018 8.67836 9.30728 10.4598 8.51552C14.0277 6.92978 18.8166 6 24 6ZM18.5449 36.723C18.3626 36.8216 18.2234 36.9176 18.1233 37.0022C18.2236 37.0868 18.3876 37.2004 18.6518 37.3324C19.4053 37.7092 20.5864 38 22 38C22.45 38 22.8762 37.9706 23.2728 37.9182C21.5478 37.7534 19.9308 37.3428 18.5449 36.723ZM32 31.004C29.6418 31.6436 26.8988 32 24 32C21.9366 32 19.9564 31.8194 18.1403 31.4866C18.3278 31.8418 18.7403 32.3022 19.5902 32.7776C20.869 33.4932 22.7788 34 25 34C25.7646 34 26.4988 33.9398 27.187 33.8292C28.834 33.5646 30.141 33.0258 30.982 32.4136C31.8344 31.793 31.9984 31.2754 32 31.004ZM35.9904 24.1046C32.638 25.3102 28.4646 26 24 26C19.5355 26 15.3624 25.3102 12.01 24.1048C12.0526 24.3414 12.2536 24.785 13.0335 25.3706C13.9258 26.0406 15.3278 26.6898 17.175 27.1776C19.1251 27.6928 21.4646 28 24 28C27.203 28 30.0802 27.51 32.2524 26.7394C33.6548 26.2418 34.668 25.6614 35.2934 25.104C35.8114 24.6424 35.956 24.3026 35.9904 24.1046ZM24 10C19.2423 10 15.0312 10.8611 12.0844 12.1708C10.6084 12.8267 9.53784 13.556 8.86332 14.2648C8.1986 14.9633 8 15.5462 8 16C8 16.9063 8.91344 18.3951 11.9832 19.7839C14.933 21.1184 19.1858 22 24 22C28.8142 22 33.067 21.1184 36.0168 19.7839C39.0866 18.3951 40 16.9063 40 16C40 15.5462 39.8014 14.9633 39.1366 14.2648C38.4622 13.556 37.3916 12.8267 35.9156 12.1708C32.9688 10.8611 28.7578 10 24 10Z" fill="white"/>
</svg>
