<svg width="48" height="48" viewBox="0 0 48 48" fill="none" xmlns="http://www.w3.org/2000/svg">
<path fill-rule="evenodd" clip-rule="evenodd" d="M32 6C38.6274 6 44 11.3726 44 18C44 21.1228 42.8072 23.9672 40.8522 26.102C41.5868 27.5768 42 29.24 42 31C42 36.927 37.3125 41.7591 31.4424 41.9913L31 42H13C8.02944 42 4 37.9706 4 33C4 29.0768 6.509 25.7416 10.0106 24.5088C10.0036 24.34 10 24.1704 10 24C10 17.5059 15.1586 12.2166 21.6016 12.0065C23.6756 8.4161 27.5556 6 32 6ZM22 16C17.5817 16 14 19.5817 14 24C14 24.3713 14.0252 24.7358 14.0737 25.0921L14.1638 25.6202C14.4051 26.7948 13.5806 27.8988 12.4169 28.0334C9.93112 28.3208 8 30.4364 8 33C8 35.6509 10.0631 37.8201 12.6712 37.9894L13 38H31C34.866 38 38 34.866 38 31C38 27.3506 35.206 24.3516 31.6418 24.0288C30.7534 23.9484 30.0198 23.2938 29.8434 22.4146C29.1088 18.7556 25.874 16 22 16ZM32 10C29.62 10 27.4828 11.0393 26.0174 12.6888C29.5066 13.928 32.2516 16.7361 33.4066 20.2644C35.2898 20.6848 36.9908 21.5878 38.3728 22.8366C39.394 21.4934 40 19.8175 40 18C40 13.5817 36.4182 10 32 10Z" fill="white"/>
</svg>
