<svg width="48" height="48" viewBox="0 0 48 48" fill="none" xmlns="http://www.w3.org/2000/svg">
<path d="M24 10C36.1502 10 46 19.8497 46 32V34C46 35.1046 45.1046 36 44 36C42.8954 36 42 35.1046 42 34V32C42 22.0588 33.9412 14 24 14C14.0589 14 6 22.0588 6 32V34C6 35.1046 5.10456 36 4 36C2.89544 36 2 35.1046 2 34V32C2 19.8497 11.8497 10 24 10ZM24 18C31.732 18 38 24.268 38 32V34C38 35.1046 37.1046 36 36 36C34.8954 36 34 35.1046 34 34V32C34 26.4772 29.5228 22 24 22C18.4772 22 14 26.4772 14 32V34C14 35.1046 13.1046 36 12 36C10.8954 36 10 35.1046 10 34V32C10 24.268 16.268 18 24 18ZM24 26C27.3138 26 30 28.6862 30 32V34C30 35.1046 29.1046 36 28 36C26.8954 36 26 35.1046 26 34V32C26 30.8954 25.1046 30 24 30C22.8954 30 22 30.8954 22 32V34C22 35.1046 21.1046 36 20 36C18.8954 36 18 35.1046 18 34V32C18 28.6862 20.6862 26 24 26Z" fill="white"/>
</svg>
