<svg width="48" height="48" viewBox="0 0 48 48" fill="none" xmlns="http://www.w3.org/2000/svg">
<path d="M18.0002 32C19.1048 32 20.0002 32.8954 20.0002 34V34.536L20.4644 34.268C21.421 33.7156 22.6442 34.0434 23.1964 35C23.7486 35.9566 23.421 37.1798 22.4644 37.732L22.0002 38L22.4644 38.2678C23.421 38.8202 23.7486 40.0434 23.1964 41C22.6442 41.9566 21.421 42.2842 20.4644 41.732L20.0002 41.464V42C20.0002 43.1046 19.1048 44 18.0002 44C16.8957 44 16.0002 43.1046 16.0002 42V41.4642L15.5361 41.732C14.5796 42.2844 13.3564 41.9566 12.8041 41C12.2518 40.0434 12.5796 38.8202 13.5361 38.268L14.0003 38L13.5361 37.732C12.5795 37.1798 12.2518 35.9566 12.8041 35C13.3564 34.0434 14.5795 33.7156 15.5361 34.2678L16.0002 34.5358V34C16.0002 32.8954 16.8957 32 18.0002 32ZM28.0002 22C29.1048 22 30.0002 22.8954 30.0002 24V24.536L30.4644 24.268C31.421 23.7156 32.6442 24.0434 33.1964 25C33.7486 25.9566 33.421 27.1798 32.4644 27.732L32.0002 28L32.4644 28.2678C33.421 28.8202 33.7486 30.0434 33.1964 31C32.6442 31.9566 31.421 32.2842 30.4644 31.732L30.0002 31.464V32C30.0002 33.1046 29.1048 34 28.0002 34C26.8956 34 26.0002 33.1046 26.0002 32V31.4642L25.5362 31.732C24.5796 32.2844 23.3564 31.9566 22.804 31C22.2518 30.0434 22.5796 28.8202 23.5362 28.268L24.0002 28L23.5362 27.732C22.5796 27.1798 22.2518 25.9566 22.804 25C23.3564 24.0434 24.5796 23.7156 25.5362 24.2678L26.0002 24.5358V24C26.0002 22.8954 26.8956 22 28.0002 22ZM23 4C28.5712 4 33.3198 7.50306 35.1712 12.424C40.26 13.8153 44 18.4693 44 24C44 27.9268 42.1118 31.413 39.2024 33.599C38.3192 34.2624 37.0654 34.0844 36.402 33.2014C35.7384 32.3182 35.9166 31.0644 36.7996 30.401C38.7468 28.938 40 26.6156 40 24C40 20.0254 37.0996 16.7246 33.3002 16.1048C32.5248 15.9783 31.8954 15.4097 31.691 14.6512C30.6582 10.8183 27.1556 8 23 8C18.0294 8 14 12.0294 14 17C14 17.3431 14.0191 17.681 14.0562 18.0127C14.1675 19.0095 13.5233 19.9346 12.5498 20.176C9.9357 20.824 8 23.1884 8 26C8 27.7918 8.78288 29.3982 10.0318 30.5006C10.86 31.2314 10.9388 32.4954 10.2078 33.3234C9.4769 34.1516 8.21302 34.2304 7.38488 33.4994C5.31214 31.67 4 28.987 4 26C4 21.8972 6.46932 18.375 10.0011 16.8323C10.0909 9.72988 15.8763 4 23 4Z" fill="white"/>
</svg>
