<svg width="48" height="48" viewBox="0 0 48 48" fill="none" xmlns="http://www.w3.org/2000/svg">
<path d="M38.2978 18.04C39.3804 18.2597 40.0798 19.3154 39.86 20.3978C39.2112 23.5938 36.3888 26 33 26H6C4.89544 26 4 25.1046 4 24C4 22.8954 4.89544 22 6 22H33C34.3524 22 35.4994 21.1033 35.8722 19.8711L35.94 19.6021C36.1596 18.5196 37.2154 17.8202 38.2978 18.04ZM18 6C21.3138 6 24 8.6863 24 12C24 15.3137 21.3138 18 18 18H10C8.89544 18 8 17.1046 8 16C8 14.8954 8.89544 14 10 14H18C19.1046 14 20 13.1046 20 12C20 10.8954 19.1046 10 18 10C17.3442 10 16.7601 10.3148 16.3934 10.8083L16.2664 11.0015C15.7133 11.9576 14.4898 12.2843 13.5337 11.7312C12.5776 11.1781 12.2509 9.95466 12.8039 8.99854C13.8383 7.21036 15.7767 6 18 6ZM32.0042 6C33.1086 6 34.0042 6.89544 34.0042 8V8.53592L34.4682 8.26796C35.4248 7.71568 36.648 8.04342 37.2004 9C37.7526 9.9566 37.4248 11.1798 36.4682 11.7321L36.0042 12L36.4682 12.2679C37.4248 12.8202 37.7526 14.0434 37.2002 14.9999C36.648 15.9565 35.4248 16.2843 34.4682 15.732L34.0042 15.464V16C34.0042 17.1046 33.1086 18 32.0042 18C30.8996 18 30.0042 17.1046 30.0042 16V15.4641L29.54 15.7321C28.5834 16.2843 27.3602 15.9566 26.808 15C26.2558 14.0434 26.5834 12.8202 27.54 12.268L28.0042 12L27.54 11.732C26.5834 11.1797 26.2558 9.95654 26.808 8.99994C27.3602 8.04336 28.5834 7.71562 29.54 8.2679L30.0042 8.53584V8C30.0042 6.89544 30.8996 6 32.0042 6ZM12 30C10.8954 30 10 30.8954 10 32C10 33.1046 10.8954 34 12 34H25C25.5522 34 26 34.4478 26 35C26 35.5522 25.5522 36 25 36C24.8069 36 24.629 35.9468 24.4769 35.8529L24.3338 35.7458C23.5108 35.0092 22.2464 35.0792 21.5098 35.9022C20.773 36.7254 20.8432 37.9898 21.6662 38.7264C22.5494 39.517 23.7206 40 25 40C27.7614 40 30 37.7614 30 35C30 32.2386 27.7614 30 25 30H12ZM38.0002 28C39.1048 28 40.0002 28.8954 40.0002 30V30.536L40.4644 30.268C41.421 29.7156 42.6442 30.0434 43.1964 31C43.7486 31.9566 43.421 33.1798 42.4644 33.732L42.0002 34L42.4644 34.2678C43.421 34.8202 43.7486 36.0434 43.1964 37C42.6442 37.9566 41.421 38.2842 40.4644 37.732L40.0002 37.464V38C40.0002 39.1046 39.1048 40 38.0002 40C36.8956 40 36.0002 39.1046 36.0002 38V37.4642L35.5362 37.732C34.5796 38.2844 33.3564 37.9566 32.804 37C32.2518 36.0434 32.5796 34.8202 33.5362 34.268L34.0002 34L33.5362 33.732C32.5796 33.1798 32.2518 31.9566 32.804 31C33.3564 30.0434 34.5796 29.7156 35.5362 30.2678L36.0002 30.5358V30C36.0002 28.8954 36.8956 28 38.0002 28Z" fill="white"/>
</svg>
