<svg width="48" height="48" viewBox="0 0 48 48" fill="none" xmlns="http://www.w3.org/2000/svg">
<path fill-rule="evenodd" clip-rule="evenodd" d="M24 4C35.0456 4 44 12.9543 44 24C44 35.0456 35.0456 44 24 44C12.9543 44 4 35.0456 4 24C4 12.9543 12.9543 4 24 4ZM24 8C15.1634 8 8 15.1634 8 24C8 32.8366 15.1634 40 24 40C32.8366 40 40 32.8366 40 24C40 15.1634 32.8366 8 24 8ZM25 28C26.6568 28 28 29.3432 28 31C28 32.6568 26.6568 34 25 34C23.3432 34 22 32.6568 22 31C22 29.3432 23.3432 28 25 28ZM16 22C17.1046 22 18 22.8954 18 24C18 25.1046 17.1046 26 16 26C14.8954 26 14 25.1046 14 24C14 22.8954 14.8954 22 16 22ZM29 14C31.7614 14 34 16.2386 34 19C34 21.7614 31.7614 24 29 24C26.2386 24 24 21.7614 24 19C24 16.2386 26.2386 14 29 14ZM29 18C28.4478 18 28 18.4477 28 19C28 19.5523 28.4478 20 29 20C29.5522 20 30 19.5523 30 19C30 18.4477 29.5522 18 29 18Z" fill="white"/>
</svg>
