<svg width="48" height="48" viewBox="0 0 48 48" fill="none" xmlns="http://www.w3.org/2000/svg">
<path fill-rule="evenodd" clip-rule="evenodd" d="M14.7431 6.1426C15.7687 6.55282 16.2675 7.71676 15.8573 8.74234L14.2016 12.8815C12.9786 15.9389 13.3393 19.4024 15.1659 22.1424L16.1629 23.638C18.7202 27.4738 19.2251 32.3228 17.5129 36.6032L15.8573 40.7424C15.447 41.768 14.2831 42.2668 13.2575 41.8566C12.232 41.4462 11.7331 40.2824 12.1434 39.2568L13.799 35.1176C15.022 32.0602 14.6613 28.5966 12.8347 25.8568L11.8377 24.3612C9.28043 20.5252 8.77555 15.6763 10.4877 11.3959L12.1434 7.25678C12.5536 6.2312 13.7175 5.73238 14.7431 6.1426ZM24.7431 6.1426C25.7687 6.55282 26.2675 7.71676 25.8573 8.74234L24.2017 12.8815C22.9787 15.9389 23.3393 19.4024 25.1659 22.1424L26.1629 23.638C28.7203 27.4738 29.2251 32.3228 27.5129 36.6032L25.8573 40.7424C25.4471 41.768 24.2831 42.2668 23.2575 41.8566C22.2319 41.4462 21.7331 40.2824 22.1433 39.2568L23.7991 35.1176C25.0219 32.0602 24.6613 28.5966 22.8347 25.8568L21.8377 24.3612C19.2804 20.5252 18.7755 15.6763 20.4877 11.3959L22.1433 7.25678C22.5535 6.2312 23.7175 5.73238 24.7431 6.1426ZM34.7431 6.1426C35.7687 6.55282 36.2675 7.71676 35.8573 8.74234L34.2017 12.8815C32.9787 15.9389 33.3393 19.4024 35.1659 22.1424L36.1629 23.638C38.7203 27.4738 39.2251 32.3228 37.5129 36.6032L35.8573 40.7424C35.4471 41.768 34.2831 42.2668 33.2575 41.8566C32.2319 41.4462 31.7331 40.2824 32.1433 39.2568L33.7991 35.1176C35.0219 32.0602 34.6613 28.5966 32.8347 25.8568L31.8377 24.3612C29.2805 20.5252 28.7755 15.6763 30.4877 11.3959L32.1433 7.25678C32.5537 6.2312 33.7175 5.73238 34.7431 6.1426Z" fill="white"/>
</svg>
