<svg width="48" height="48" viewBox="0 0 48 48" fill="none" xmlns="http://www.w3.org/2000/svg">
<path fill-rule="evenodd" clip-rule="evenodd" d="M29.8044 9.34072L29.598 8.8419C28.9284 7.35082 30.2102 5.75246 31.7876 6.03086C38.728 7.2558 44 13.3127 44 20.605C44 23.5106 43.1628 26.2206 41.7164 28.507C41.902 29.308 42 30.1424 42 31C42 36.927 37.3125 41.7591 31.4424 41.9913L31 42H13C8.02944 42 4 37.9706 4 33C4 29.0768 6.509 25.7416 10.0106 24.5088C10.0036 24.34 10 24.1704 10 24C10 17.3726 15.3726 12 22 12C25.1014 12 27.9268 13.176 30.056 15.1061C30.28 14.311 30.3998 13.4722 30.3998 12.6054C30.3998 11.4526 30.1888 10.3532 29.8044 9.34072ZM22 16C17.5817 16 14 19.5817 14 24C14 24.3713 14.0252 24.7358 14.0737 25.0921L14.1638 25.6202C14.4051 26.7948 13.5806 27.8988 12.4169 28.0334C9.93112 28.3208 8 30.4364 8 33C8 35.6509 10.0631 37.8201 12.6712 37.9894L13 38H31C34.866 38 38 34.866 38 31C38 27.3506 35.206 24.3516 31.6418 24.0288C30.7534 23.9484 30.0198 23.2938 29.8434 22.4146C29.1088 18.7556 25.874 16 22 16ZM34.3136 11.0894C34.3706 11.5872 34.3998 12.093 34.3998 12.6054C34.3998 14.8608 33.8342 16.9842 32.837 18.8412C33.0558 19.3003 33.2464 19.7754 33.4066 20.2644C35.8214 20.8036 37.9366 22.136 39.4642 23.974C39.812 22.914 40 21.7814 40 20.605C40 16.4914 37.699 12.9128 34.3136 11.0894Z" fill="white"/>
</svg>
