<svg width="48" height="48" viewBox="0 0 48 48" fill="none" xmlns="http://www.w3.org/2000/svg">
<path d="M18 4C21.3138 4 24 6.6863 24 10V25.9118L24.0186 25.9542C24.0456 26.0032 24.1008 26.0752 24.193 26.148C26.5082 27.976 28 30.8144 28 34C28 39.5228 23.5228 44 18 44C12.4772 44 8 39.5228 8 34C8 30.8144 9.49182 27.976 11.807 26.148C11.8685 26.0995 11.9135 26.0513 11.9447 26.01L12 25.9118V10C12 6.6863 14.6863 4 18 4ZM18 8C16.8954 8 16 8.89544 16 10V25.9166C16 27.2661 15.3266 28.3683 14.5113 29.0978L14.2858 29.2874C12.89 30.3896 12 32.0902 12 34C12 37.3138 14.6863 40 18 40C21.3138 40 24 37.3138 24 34C24 32.2266 23.2326 30.6336 22.0054 29.5326L21.7142 29.2874C20.8014 28.5666 20 27.3888 20 25.9166V10C20 8.89544 19.1046 8 18 8ZM22 34C22 36.2092 20.2092 38 18 38C15.7909 38 14 36.2092 14 34H22ZM33.9998 12C35.0255 12 35.8708 12.7721 35.9863 13.7668L35.9998 14V16.536L38.1962 15.2679C39.1528 14.7157 40.376 15.0434 40.9282 16C41.441 16.8883 41.1951 18.0064 40.3915 18.6038L40.1962 18.7321L37.9998 20L40.1958 21.268C41.1524 21.8202 41.4802 23.0434 40.928 24C40.4151 24.8883 39.3237 25.2344 38.4045 24.837L38.1958 24.732L35.9998 23.4642V26C35.9998 27.1046 35.1044 28 33.9998 28C32.9741 28 32.1288 27.2279 32.0133 26.2332L31.9998 26V23.4642L29.8038 24.732C28.8472 25.2844 27.624 24.9566 27.0718 24C26.5589 23.1117 26.8049 21.9936 27.6085 21.3963L27.8038 21.268L29.9998 20L27.8036 18.7321C26.847 18.1798 26.5192 16.9566 27.0716 16C27.5844 15.1117 28.6757 14.7657 29.5949 15.163L29.8036 15.2679L31.9998 16.536V14C31.9998 12.8954 32.8952 12 33.9998 12Z" fill="white"/>
</svg>
