<svg width="48" height="48" viewBox="0 0 48 48" fill="none" xmlns="http://www.w3.org/2000/svg">
<path fill-rule="evenodd" clip-rule="evenodd" d="M18 4C21.1954 4 23.8073 6.49785 23.9898 9.64746L24 10V11.1369C24.6781 10.7846 25.5157 10.8469 26.1373 11.3238L26.336 11.4981C27.1312 12.2933 27.1312 13.5597 26.3502 14.3407C25.7776 14.9134 24.9441 15.0661 24.2322 14.7991L24 14.6945V19.7164C24.0132 19.8092 24.02 19.9041 24.02 20.0004L24.0149 20.1439L24 20.2846V25.294C24.7578 24.8846 25.7242 25 26.3644 25.6402C27.0853 26.3611 27.1408 27.4956 26.5308 28.2802L26.3448 28.4882C27.39 30.068 28 31.963 28 34C28 39.5228 23.5228 44 18 44C12.4772 44 8 39.5228 8 34C8 30.8144 9.49182 27.976 11.807 26.148C11.8685 26.0995 11.9135 26.0513 11.9447 26.01L12 25.9118V10C12 6.6863 14.6863 4 18 4ZM18 8C16.9743 8 16.129 8.77209 16.0135 9.76676L16 10V25.9166C16 27.2661 15.3266 28.3683 14.5113 29.0978L14.2858 29.2874C12.89 30.3896 12 32.0902 12 34C12 37.3138 14.6863 40 18 40C21.3138 40 24 37.3138 24 34C24 32.2266 23.2326 30.6336 22.0054 29.5326L21.7142 29.2874C20.8775 28.6267 20.1343 27.5819 20.0163 26.2784L20 25.9166V10C20 8.89544 19.1046 8 18 8ZM32 27.9804C33.0257 27.9804 33.871 28.7525 33.9865 29.7472L34 30.0004C34 31.105 33.1046 32.0004 32 32.0004C30.9743 32.0004 30.129 31.2283 30.0135 30.2336L30 29.9804C30 28.8758 30.8954 27.9804 32 27.9804ZM40.4782 25.6402C41.2734 26.4354 41.2734 27.7018 40.4924 28.4828C39.7713 29.2037 38.6369 29.2592 37.8524 28.6492L37.6498 28.4686C36.8688 27.6876 36.8688 26.4212 37.6498 25.6402C38.4308 24.8592 39.6972 24.8592 40.4782 25.6402ZM32 14.0005C35.3138 14.0005 38 16.6868 38 20.0004C38 23.3142 35.3138 26.0004 32 26.0004C28.6862 26.0004 26 23.3142 26 20.0004C26 16.6868 28.6862 14.0005 32 14.0005ZM32 18.0005C30.8954 18.0005 30 18.8959 30 20.0004C30 21.105 30.8954 22.0004 32 22.0004C33.1046 22.0004 34 21.105 34 20.0004C34 18.8959 33.1046 18.0005 32 18.0005ZM42 18.0005C43.1046 18.0005 44 18.8959 44 20.0004C44 21.0261 43.2279 21.8714 42.2332 21.9869L41.98 22.0004C40.8754 22.0004 39.98 21.105 39.98 20.0004C39.98 18.9748 40.7521 18.1295 41.7468 18.0139L42 18.0005ZM40.4924 11.5123C41.2133 12.2333 41.2688 13.3677 40.6588 14.1523L40.4782 14.3549C39.6972 15.1359 38.4308 15.1359 37.6498 14.3549C36.9289 13.6339 36.8734 12.4994 37.4834 11.7149L37.664 11.5123C38.445 10.7312 39.7112 10.7313 40.4924 11.5123ZM32 7.98046C33.0257 7.98046 33.871 8.75255 33.9865 9.74722L34 10.0005C34 11.105 33.1046 12.0005 32 12.0005C30.9743 12.0005 30.129 11.2284 30.0135 10.2337L30 9.98046C30 8.8759 30.8954 7.98046 32 7.98046Z" fill="white"/>
</svg>
