<svg width="48" height="48" viewBox="0 0 48 48" fill="none" xmlns="http://www.w3.org/2000/svg">
<path d="M32.0002 32C33.1048 32 34.0002 32.8954 34.0002 34V34.536L34.4644 34.268C35.421 33.7156 36.6442 34.0434 37.1964 35C37.7486 35.9566 37.421 37.1798 36.4644 37.732L36.0002 38L36.4644 38.2678C37.421 38.8202 37.7486 40.0434 37.1964 41C36.6442 41.9566 35.421 42.2842 34.4644 41.732L34.0002 41.464V42C34.0002 43.1046 33.1048 44 32.0002 44C30.8956 44 30.0002 43.1046 30.0002 42V41.4642L29.5362 41.732C28.5796 42.2844 27.3564 41.9566 26.804 41C26.2518 40.0434 26.5796 38.8202 27.5362 38.268L28.0002 38L27.5362 37.732C26.5796 37.1798 26.2518 35.9566 26.804 35C27.3564 34.0434 28.5796 33.7156 29.5362 34.2678L30.0002 34.5358V34C30.0002 32.8954 30.8956 32 32.0002 32ZM16.0002 32C17.1048 32 18.0002 32.8954 18.0002 34V34.536L18.4643 34.268C19.4209 33.7156 20.6442 34.0434 21.1964 35C21.7486 35.9566 21.421 37.1798 20.4644 37.732L20.0002 38L20.4644 38.2678C21.421 38.8202 21.7486 40.0434 21.1964 41C20.6442 41.9566 19.4209 42.2842 18.4643 41.732L18.0002 41.464V42C18.0002 43.1046 17.1048 44 16.0002 44C14.8957 44 14.0002 43.1046 14.0002 42V41.4642L13.5361 41.732C12.5796 42.2844 11.3564 41.9566 10.8041 41C10.2518 40.0434 10.5796 38.8202 11.5361 38.268L12.0003 38L11.5361 37.732C10.5795 37.1798 10.2518 35.9566 10.8041 35C11.3564 34.0434 12.5795 33.7156 13.5361 34.2678L14.0002 34.5358V34C14.0002 32.8954 14.8957 32 16.0002 32ZM24.0002 20C25.1048 20 26.0002 20.8954 26.0002 22V22.536L26.4644 22.268C27.421 21.7156 28.6442 22.0434 29.1964 23C29.7486 23.9566 29.421 25.1798 28.4644 25.732L28.0002 26L28.4644 26.2678C29.421 26.8202 29.7486 28.0434 29.1964 29C28.6442 29.9566 27.421 30.2842 26.4644 29.732L26.0002 29.464V30C26.0002 31.1046 25.1048 32 24.0002 32C22.8956 32 22.0002 31.1046 22.0002 30V29.4642L21.5362 29.732C20.5796 30.2844 19.3564 29.9566 18.8041 29C18.2518 28.0434 18.5796 26.8202 19.5361 26.268L20.0002 26L19.5361 25.732C18.5795 25.1798 18.2518 23.9566 18.8041 23C19.3564 22.0434 20.5796 21.7156 21.5362 22.2678L22.0002 22.5358V22C22.0002 20.8954 22.8956 20 24.0002 20ZM23 4C28.5712 4 33.32 7.50308 35.1712 12.424C40.26 13.8153 44 18.4692 44 24C44 26.6994 43.106 29.1956 41.5992 31.2014C40.9356 32.0844 39.682 32.2624 38.7988 31.599C37.9158 30.9354 37.7378 29.6818 38.4012 28.7986C39.4056 27.4618 40 25.8032 40 24C40 20.029 37.1048 16.7305 33.3104 16.1065C32.5308 15.9783 31.8954 15.4066 31.6882 14.641C30.652 10.8133 27.152 8 23 8C18.0294 8 14 12.0294 14 17C14 17.3382 14.0186 17.6713 14.0546 17.9985C14.1659 19.0094 13.5102 19.9356 12.537 20.1792C9.92936 20.8318 8 23.193 8 26C8 26.9396 8.21463 27.8245 8.59669 28.6127L8.80146 28.9986C9.35456 29.9546 9.02784 31.1782 8.0717 31.7312C7.11558 32.2842 5.89214 31.9576 5.33904 31.0014C4.48702 29.5286 4 27.8182 4 26C4 21.8972 6.46936 18.375 10.0011 16.8323C10.0909 9.72988 15.8763 4 23 4Z" fill="white"/>
</svg>
