<svg width="48" height="48" viewBox="0 0 48 48" fill="none" xmlns="http://www.w3.org/2000/svg">
<path d="M11 6C9.34312 6 7.99998 7.34314 7.99998 9C7.99998 10.6569 9.34312 12 11 12C12.6568 12 14 10.6569 14 9C14 7.34314 12.6568 6 11 6ZM24 6C22.3432 6 21 7.34314 21 9C21 10.6569 22.3432 12 24 12C25.6568 12 27 10.6569 27 9C27 7.34314 25.6568 6 24 6ZM37 6C35.3432 6 34 7.34314 34 9C34 10.6569 35.3432 12 37 12C38.6568 12 40 10.6569 40 9C40 7.34314 38.6568 6 37 6ZM11 36C9.34312 36 7.99998 37.3432 7.99998 39C7.99998 40.6568 9.34312 42 11 42C12.6568 42 14 40.6568 14 39C14 37.3432 12.6568 36 11 36ZM24 36C22.3432 36 21 37.3432 21 39C21 40.6568 22.3432 42 24 42C25.6568 42 27 40.6568 27 39C27 37.3432 25.6568 36 24 36ZM37 36C35.3432 36 34 37.3432 34 39C34 40.6568 35.3432 42 37 42C38.6568 42 40 40.6568 40 39C40 37.3432 38.6568 36 37 36ZM8.51658 29.8304C5.29656 26.6104 5.29656 21.3896 8.51658 18.1696C11.552 15.1342 16.4086 14.9356 19.6817 17.7129L24 21.377L28.3182 17.7129C31.5914 14.9356 36.4478 15.1342 39.4832 18.1696C42.7034 21.3896 42.7034 26.6104 39.4832 29.8304C36.4478 32.8658 31.5914 33.0644 28.3182 30.287L24 26.623L19.6817 30.287C16.4086 33.0644 11.552 32.8658 8.51658 29.8304ZM11.345 20.998C9.68708 22.656 9.68708 25.344 11.345 27.002C12.9079 28.5648 15.4084 28.6672 17.0937 27.2372L20.9088 24L17.0937 20.7628C15.4085 19.3329 12.9079 19.4352 11.345 20.998ZM27.0912 24L30.9062 27.237C32.5914 28.6672 35.092 28.5648 36.6548 27.002C38.3128 25.344 38.3128 22.656 36.6548 20.998C35.092 19.4352 32.5914 19.3329 30.9062 20.763L27.0912 24Z" fill="white"/>
</svg>
