<svg width="48" height="48" viewBox="0 0 48 48" fill="none" xmlns="http://www.w3.org/2000/svg">
<path fill-rule="evenodd" clip-rule="evenodd" d="M28.0016 4C32.7938 4 37.2 5.68894 40.6454 8.50302L42.616 10.1125C43.5252 10.8552 42.937 12.3271 41.7662 12.2384L39.2292 12.0463C37.7886 11.9372 36.3014 12.0261 34.9122 12.2976C38.0416 15.2169 40.0004 19.3789 40.0004 24C40.0004 35.0456 31.046 44 20.0004 44C15.2082 44 10.802 42.311 7.35656 39.497L5.38604 37.8876C4.47666 37.1448 5.06498 35.6728 6.23576 35.7616L8.77276 35.9538C10.2133 36.0628 11.7004 35.974 13.0895 35.7024C9.95996 32.7832 8.00036 28.6214 8.00036 24C8.00036 12.9541 16.9561 4 28.0016 4ZM28.0016 8C19.1649 8 12.0004 15.1636 12.0004 24C12.0004 28.6014 14.5895 32.6012 18.3998 34.6162L19.8371 35.3762C20.7174 35.8418 20.686 37.1276 19.7826 37.5466C18.3191 38.2252 16.8381 38.8694 15.2841 39.2942C16.7742 39.753 18.3577 40 20.0004 40C28.837 40 36.0004 32.8366 36.0004 24C36.0004 19.3983 33.4122 15.3987 29.6022 13.3839L28.1648 12.6238C27.2844 12.1583 27.3158 10.8724 28.2194 10.4534C29.6828 9.7748 31.1638 9.13056 32.7178 8.70588C31.2278 8.24702 29.6442 8 28.0016 8ZM24 18C27.3138 18 30 20.6862 30 24C30 27.3138 27.3138 30 24 30C20.6862 30 18 27.3138 18 24C18 20.6862 20.6862 18 24 18ZM24 22C22.8954 22 22 22.8954 22 24C22 25.1046 22.8954 26 24 26C25.1046 26 26 25.1046 26 24C26 22.8954 25.1046 22 24 22Z" fill="white"/>
</svg>
