<svg width="48" height="48" viewBox="0 0 48 48" fill="none" xmlns="http://www.w3.org/2000/svg">
<path fill-rule="evenodd" clip-rule="evenodd" d="M4 12C4 10.8954 4.89544 10 6 10H7C7.71772 10 8.3804 10.3846 8.73648 11.0077L14 20.2188V12C14 10.8954 14.8954 10 16 10C17.1046 10 18 10.8954 18 12V26C18 27.1046 17.1046 28 16 28H15C14.2823 28 13.6196 27.6154 13.2635 26.9922L8 17.7811V26C8 27.1046 7.10456 28 6 28C4.89544 28 4 27.1046 4 26V12ZM29.8944 14.2111C30.8824 14.7051 31.2828 15.9065 30.7888 16.8944L22.7888 32.8944C22.2948 33.8824 21.0936 34.2828 20.1056 33.7888C19.1176 33.2948 18.7172 32.0936 19.2111 31.1056L27.2112 15.1056C27.7052 14.1176 28.9064 13.7172 29.8944 14.2111ZM33.1082 21.3514C33.3852 20.543 34.1454 20 35 20H37C37.8546 20 38.6148 20.543 38.8918 21.3514L42.3062 31.3096L43.8616 35.2686C44.2654 36.2968 43.7594 37.4576 42.7314 37.8616C41.7032 38.2654 40.5424 37.7594 40.1384 36.7314L39.0654 34H32.9346L31.8616 36.7314C31.4576 37.7594 30.2968 38.2654 29.2686 37.8616C28.2406 37.4576 27.7346 36.2968 28.1384 35.2686L29.6938 31.3096L33.1082 21.3514ZM34.3714 30H37.6286L36 25.25L34.3714 30Z" fill="white"/>
</svg>
