<svg width="48" height="48" viewBox="0 0 48 48" fill="none" xmlns="http://www.w3.org/2000/svg">
<path d="M17.2931 25.4646L18.0002 26.1718L18.7073 25.4646C19.4884 24.6836 20.7548 24.6836 21.5358 25.4646C22.3168 26.2458 22.3168 27.512 21.5358 28.2932L20.8286 29.0002L21.5358 29.7074C22.3168 30.4884 22.3168 31.7548 21.5358 32.5358C20.7548 33.3168 19.4884 33.3168 18.7073 32.5358L18.0002 31.8286L17.2931 32.5358C16.5121 33.3168 15.2457 33.3168 14.4647 32.5358C13.6836 31.7548 13.6836 30.4884 14.4647 29.7074L15.1718 29.0002L14.4647 28.2932C13.6836 27.512 13.6836 26.2458 14.4647 25.4646C15.2457 24.6836 16.5121 24.6836 17.2931 25.4646ZM29.2932 25.4646L30.0002 26.1718L30.7074 25.4646C31.4884 24.6836 32.7548 24.6836 33.5358 25.4646C34.3168 26.2458 34.3168 27.512 33.5358 28.2932L32.8286 29.0002L33.5358 29.7074C34.3168 30.4884 34.3168 31.7548 33.5358 32.5358C32.7548 33.3168 31.4884 33.3168 30.7074 32.5358L30.0002 31.8286L29.2932 32.5358C28.512 33.3168 27.2458 33.3168 26.4646 32.5358C25.6836 31.7548 25.6836 30.4884 26.4646 29.7074L27.1718 29.0002L26.4646 28.2932C25.6836 27.512 25.6836 26.2458 26.4646 25.4646C27.2458 24.6836 28.512 24.6836 29.2932 25.4646ZM23 4C28.5712 4 33.32 7.50308 35.1712 12.424C40.26 13.8153 44 18.4692 44 24C44 26.6994 43.106 29.1956 41.5992 31.2014C40.9356 32.0844 39.682 32.2624 38.7988 31.599C37.9158 30.9354 37.7378 29.6818 38.4012 28.7986C39.4056 27.4618 40 25.8032 40 24C40 20.029 37.1048 16.7305 33.3104 16.1065C32.5308 15.9783 31.8954 15.4066 31.6882 14.641C30.652 10.8133 27.152 8 23 8C18.0294 8 14 12.0294 14 17C14 17.3382 14.0186 17.6713 14.0546 17.9985C14.1659 19.0094 13.5102 19.9356 12.537 20.1792C9.92936 20.8318 8 23.193 8 26C8 26.9396 8.21463 27.8245 8.59669 28.6127L8.80146 28.9986C9.35456 29.9546 9.02784 31.1782 8.0717 31.7312C7.11558 32.2842 5.89214 31.9576 5.33904 31.0014C4.48702 29.5286 4 27.8182 4 26C4 21.8972 6.46936 18.375 10.0011 16.8323C10.0909 9.72988 15.8763 4 23 4ZM17.5358 36.4646C18.3168 37.2458 18.3168 38.512 17.5358 39.2932L16.8287 40.0002L17.5358 40.7074C18.3168 41.4884 18.3168 42.7548 17.5358 43.5358C16.7547 44.3168 15.4884 44.3168 14.7073 43.5358L14.0002 42.8286L13.2931 43.5358C12.5121 44.3168 11.2457 44.3168 10.4647 43.5358C9.68364 42.7548 9.68364 41.4884 10.4647 40.7074L11.1718 40.0002L10.4647 39.2932C9.68364 38.512 9.68364 37.2458 10.4647 36.4646C11.2457 35.6836 12.5121 35.6836 13.2931 36.4646L14.0002 37.1718L14.7073 36.4646C15.4884 35.6836 16.7547 35.6836 17.5358 36.4646ZM29.5358 36.4646C30.3168 37.2458 30.3168 38.512 29.5358 39.2932L28.8286 40.0002L29.5358 40.7074C30.3168 41.4884 30.3168 42.7548 29.5358 43.5358C28.7548 44.3168 27.4884 44.3168 26.7074 43.5358L26.0002 42.8286L25.2932 43.5358C24.512 44.3168 23.2458 44.3168 22.4646 43.5358C21.6836 42.7548 21.6836 41.4884 22.4646 40.7074L23.1718 40.0002L22.4646 39.2932C21.6836 38.512 21.6836 37.2458 22.4646 36.4646C23.2458 35.6836 24.512 35.6836 25.2932 36.4646L26.0002 37.1718L26.7074 36.4646C27.4884 35.6836 28.7548 35.6836 29.5358 36.4646Z" fill="white"/>
</svg>
